<svg width="485" height="89" viewBox="0 0 485 89" fill="none" xmlns="http://www.w3.org/2000/svg">
<path d="M41.6197 1.00121C55.7613 1.00121 66.7928 6.5056 74.6118 17.5202L75.1241 18.2408L74.472 18.8382L59.8253 32.25L58.8984 33.0986L58.2776 32.0055C56.5177 28.9028 54.1713 26.5586 51.2349 24.9462C48.2701 23.3184 45.148 22.5048 41.8456 22.5048C35.9729 22.5048 31.3449 24.5681 27.8491 28.6812H27.8482C24.3206 32.8228 22.539 37.9745 22.539 44.1951C22.539 50.4176 24.3778 55.7954 28.0085 59.9407L28.3497 60.321C31.9069 64.1912 36.3876 66.1278 41.8456 66.1279C46.4316 66.1279 50.2414 64.7546 53.338 62.0477C56.1447 59.5868 57.6342 56.786 57.8904 53.6186H39.2907V36.0035H80.0148V45.5385C80.0147 58.015 76.4183 68.1818 69.1472 75.919C61.8827 83.649 52.6457 87.52 41.5063 87.52C29.7135 87.5199 19.977 83.4945 12.3704 75.436L12.3695 75.435C4.7724 67.376 1.00121 56.9316 1.00121 44.1951C1.00312 31.707 4.79777 21.3446 12.4242 13.2093C20.0581 5.0663 29.8143 1.00121 41.6197 1.00121Z" stroke="#29139A" stroke-opacity="0.5" stroke-width="2"/>
<path d="M143.132 2.46587V22.7668H107.291V34.4186H142.02V53.8611H107.291V65.7642H144.347V86.0651H86.4225V2.46587H143.132Z" stroke="#29139A" stroke-opacity="0.5" stroke-width="2"/>
<path d="M171.834 2.46587L172.129 2.92542L201.69 48.8482V2.46587H222.116V86.0651H202.82L202.522 85.6134L172.514 39.8705V86.0651H152.088V2.46587H171.834Z" stroke="#29139A" stroke-opacity="0.5" stroke-width="2"/>
<path d="M268.582 1.00121C280.027 1.00125 289.556 5.14298 297.116 13.4039V13.4049C304.66 21.6589 308.418 31.9908 308.418 44.3261C308.418 56.6593 304.68 66.9542 297.171 75.1261L297.172 75.127C289.584 83.3871 280.026 87.5287 268.582 87.5288C257.139 87.5288 247.618 83.4168 240.103 75.1906C232.596 66.973 228.858 56.6598 228.858 44.3261C228.858 31.9923 232.596 21.661 240.101 13.4068C247.615 5.1433 257.137 1.00121 268.582 1.00121ZM268.591 22.6358C263.361 22.6359 259.083 24.5504 255.483 28.4436L255.137 28.8259C251.473 32.9695 249.615 38.1172 249.615 44.3261C249.615 50.5353 251.464 55.6728 255.137 59.8253L255.482 60.2076C259.077 64.0914 263.432 66.0153 268.591 66.0154C273.923 66.0154 278.493 63.969 282.158 59.8253L282.496 59.4342C285.936 55.3593 287.681 50.3411 287.681 44.3261C287.681 38.1167 285.832 32.9785 282.159 28.8259H282.158C278.5 24.6899 273.995 22.6358 268.591 22.6358Z" stroke="#29139A" stroke-opacity="0.5" stroke-width="2"/>
<path d="M335.513 2.46587L335.798 2.98212L358.781 44.4522L381.765 2.98212L382.051 2.46587H402.282V86.0651H381.639V42.9406L365.969 70.0731L365.68 70.5737H351.769L351.481 70.0711L335.925 42.9631V86.0651H315.168V2.46587H335.513Z" stroke="#29139A" stroke-opacity="0.5" stroke-width="2"/>
<path d="M457.26 2.46587L457.481 3.16594L483.223 84.753L483.635 86.0563H461.082L460.881 85.3171L457.305 72.1498H432.09L428.413 85.324L428.209 86.0563H405.436L405.858 84.7471L432.156 3.16007L432.38 2.46587H457.26ZM437.318 52.4746H452.431L444.874 25.1554L437.318 52.4746Z" stroke="#29139A" stroke-opacity="0.5" stroke-width="2"/>
</svg>
